<?xml version="1.0" standalone="no"?>
<!DOCTYPE svg PUBLIC "-//W3C//DTD SVG 20010904//EN" "http://www.w3.org/TR/2001/REC-SVG-20010904/DTD/svg10.dtd">
<!-- Created using Krita: https://krita.org -->
<svg xmlns="http://www.w3.org/2000/svg" 
    xmlns:xlink="http://www.w3.org/1999/xlink"
    xmlns:krita="http://krita.org/namespaces/svg/krita"
    xmlns:sodipodi="http://sodipodi.sourceforge.net/DTD/sodipodi-0.dtd"
    width="462.96pt"
    height="462.96pt"
    viewBox="0 0 462.96 462.96">
<defs/>
<path id="shape0" transform="matrix(4.74123045094374 0 0 4.44887245678168 96.45 64.4502137771277)" fill="none" stroke="#ffffff" stroke-width="10" stroke-linecap="round" stroke-linejoin="round" d="M4.91294 2.51813C10.3148 1.88624 26.119 -2.00936 40.9229 1.34713C62.8953 8.62057 52.9389 29.4234 39.6715 32.3481C54.4775 35.6278 62.5745 55.8058 50.5982 69.4901C42.5982 77.1597 9.46145 75.3104 3.6318 70.1597C-1.54238 53.7916 -1.25132 19.094 4.91294 2.51813Z" sodipodi:nodetypes="cccccc"/><path id="shape1" transform="matrix(4.74123045094374 0 0 4.44887245678168 165.156284460492 120.223465407969)" fill="none" stroke="#ffffff" stroke-width="10" stroke-linecap="round" stroke-linejoin="round" d="M23.2674 19.3304C23.2674 11.0462 24.2043 1.28309 11.7089 0C0.267027 0.641545 6.66134e-16 9.60268 0 17.887C-6.66134e-16 26.1712 0.718516 30.8019 11.5584 33.5285C21.4954 31.6039 23.2674 27.6147 23.2674 19.3304Z" sodipodi:nodetypes="ccccc"/><path id="shape2" transform="matrix(4.74123045094374 0 0 4.44887245678168 168.311048231391 310.811442805236)" fill="none" stroke="#ffffff" stroke-width="10" stroke-linecap="round" stroke-linejoin="round" d="M0 0.641545C5.45464 8.0129 22.5014 6.24254 25.699 0" sodipodi:nodetypes="cc"/>
</svg>
